<?xml version="1.0" encoding="utf-8"?>
<!-- Generator: Adobe Illustrator 22.1.0, SVG Export Plug-In . SVG Version: 6.00 Build 0)  -->
<svg version="1.1" id="Слой_1" xmlns="http://www.w3.org/2000/svg" xmlns:xlink="http://www.w3.org/1999/xlink" x="0px" y="0px"
	 viewBox="0 0 511 511" style="enable-background:new 0 0 511 511;" xml:space="preserve">
<style type="text/css">
	.st0{fill:#FFFFFF;}
</style>
<path class="st0" d="M468.7,11H42.3C19,11,0,30,0,53.3v344.5C0,421.1,19,440,42.3,440h137.6v32h-11.2c-8.3,0-15,6.7-15,15
	c0,8.3,6.7,15,15,15h173.5c8.3,0,15-6.7,15-15c0-8.3-6.7-15-15-15h-11.2v-32h137.6c23.3,0,42.3-19,42.3-42.3V53.3
	C511,30,492,11,468.7,11z M457.9,335.8c0,8.3-6.7,15-15,15H68c-8.3,0-15-6.7-15-15V75.3c0-8.3,6.7-15,15-15H443c8.3,0,15,6.7,15,15
	V335.8z"/>
</svg>
