<?xml version="1.0" encoding="utf-8"?>
<!-- Generator: Adobe Illustrator 22.1.0, SVG Export Plug-In . SVG Version: 6.00 Build 0)  -->
<svg version="1.1" id="Capa_1" xmlns="http://www.w3.org/2000/svg" xmlns:xlink="http://www.w3.org/1999/xlink" x="0px" y="0px"
	 viewBox="0 0 512 512" style="enable-background:new 0 0 512 512;" xml:space="preserve">
<style type="text/css">
	.st0{fill:#FFFFFF;}
</style>
<g>
	<g>
		<path class="st0" d="M391.6,170.7c-23.5,0-42.7,19.1-42.7,42.7V288c0,23.5,19.1,42.7,42.7,42.7c7.8,0,15.1-2.1,21.3-5.7v40.9
			c0,68.9-56,124.9-124.9,124.9h-47.2c-18.4,0-36.8-4.4-53.2-12.6c-33.3-16.7-57.2-48.5-63.8-85.1l-9-49.2c-0.4-2.2-0.6-4.5-0.6-6.8
			c0-17.6,11.9-32.7,29.1-36.7l134.2-31.6c1.6,8.8,0.5,17.9-3.2,26.3c-5,11.2-14.1,19.7-25.7,23.9l-46,16.7
			c-7.3,2.6-13.1,8.3-16,15.5c-2.9,7.2-2.5,15.3,1,22.2l13.1,26.1c2.6,5.3,9,7.4,14.3,4.8c5.3-2.6,7.4-9,4.8-14.3l-13.1-26.2
			c-1-2-0.6-3.8-0.2-4.7c0.3-0.9,1.3-2.5,3.4-3.3l46-16.7c17-6.2,30.4-18.7,37.8-35.2c7.4-16.5,7.8-34.9,1-51.7
			c-2-4.9-7.2-7.6-12.3-6.4l-144,33.9c-26.8,6.3-45.5,29.9-45.5,57.5c0,3.5,0.3,7,0.9,10.6l9,49.3c7.9,43.2,36,80.7,75.3,100.4
			c19.4,9.7,41.1,14.8,62.7,14.8H288c80.6,0,146.2-65.6,146.2-146.2V213.3C434.3,189.8,415.1,170.7,391.6,170.7z M412.9,288
			c0,11.8-9.6,21.3-21.3,21.3s-21.3-9.6-21.3-21.3v-74.7c0-11.8,9.6-21.3,21.3-21.3s21.3,9.6,21.3,21.3V288z"/>
	</g>
</g>
<g>
	<g>
		<path class="st0" d="M370.3,213.3v-42.7c0-23.5-19.1-42.7-42.7-42.7s-42.7,19.1-42.7,42.7v106.7c0,23.5,19.1,42.7,42.7,42.7
			c23.5,0,42.7-19.1,42.7-42.7v-42.7c0-5.9-4.8-10.7-10.7-10.7s-10.7,4.8-10.7,10.7v42.7c0,11.8-9.6,21.3-21.3,21.3
			s-21.3-9.6-21.3-21.3V170.7c0-11.8,9.6-21.3,21.3-21.3s21.3,9.6,21.3,21.3v42.7c0,5.9,4.8,10.7,10.7,10.7S370.3,219.2,370.3,213.3
			z"/>
	</g>
</g>
<g>
	<g>
		<path class="st0" d="M262,0c-22.8,0-41.8,17.1-44.1,40.5L212,199.1L160.1,82.7c-4.9-11.3-14.5-19.9-26.3-23.7
			c-11.8-3.7-24.6-2.3-35.2,4.1c-17.1,10.3-24.9,30.7-18.9,49.8l56.3,178.3c1.5,4.6,5.6,7.5,10.2,7.5c1.1,0,2.2-0.1,3.2-0.5
			c5.6-1.8,8.7-7.8,7-13.4l-56.3-178.4c-3-9.6,0.9-19.9,9.5-25.1c5.3-3.2,11.8-3.9,17.7-2c5.9,1.9,10.8,6.2,13.2,12l59.9,134.2
			c3.2,7.2,10.8,11.1,18.6,9.6c7.7-1.5,13.3-8.1,13.6-15.9L239.2,42c1.2-11.8,11-20.6,22.8-20.6c12.7,0,22.9,10.3,22.9,22.9v126.4
			c0,5.9,4.8,10.7,10.7,10.7s10.7-4.8,10.7-10.7V44.3C306.3,19.9,286.4,0,262,0z"/>
	</g>
</g>
</svg>
